<svg width="24px" height="24px" viewBox="0 0 24 24" fill="none" xmlns="http://www.w3.org/2000/svg">
<path d="M20.8994 10.0383H20.408V10H12V14H17.5191C17.0973 15.0548 16.3331 15.9445 15.3617 16.5567L15.298 16.6017L18.3284 18.9086L18.4446 18.9204C20.1133 17.2443 21 14.8559 21 12C21 11.2912 20.9584 10.6601 20.8994 10.0383Z" fill="#4285F4"/>
<path d="M12 21C14.4222 21 16.4722 20.1665 18.0006 18.9204L15.038 16.6017C14.1694 17.1214 13.135 17.4286 12 17.4286C9.92063 17.4286 8.12563 16.1077 7.41563 14.2321L7.32688 14.242L4.16875 16.7234L4.09688 16.8835C5.54438 19.4227 8.54625 21 12 21Z" fill="#34A853"/>
<path d="M7.41562 14.2321C7.17375 13.5245 7.02813 12.7729 7.02813 12C7.02813 11.2271 7.17375 10.4755 7.41562 9.76788L7.40313 9.567L4.22688 7.05805L4.09687 7.11653C3.4025 8.40182 3 10.0894 3 12C3 13.9106 3.4025 15.5982 4.09687 16.8835L7.41562 14.2321Z" fill="#FBBC05"/>
<path d="M12 6.57143C13.6331 6.57143 14.8375 7.18366 15.4044 7.7154L18.0719 5.11216C16.4044 3.61081 14.2944 3 12 3C8.54625 3 5.54437 4.57733 4.09688 7.11653L7.41563 9.76788C8.12563 7.89226 9.92063 6.57143 12 6.57143Z" fill="#EA4335"/>
</svg>
